<mxfile host="Electron" agent="Mozilla/5.0 (X11; Linux x86_64) AppleWebKit/537.36 (KHTML, like Gecko) draw.io/25.0.2 Chrome/128.0.6613.186 Electron/32.2.5 Safari/537.36" version="25.0.2">
  <diagram name="Page-1" id="oy9FXjBTYUOgZ8MYQzJ_">
    <mxGraphModel dx="1763" dy="1116" grid="1" gridSize="10" guides="1" tooltips="1" connect="1" arrows="1" fold="1" page="1" pageScale="1" pageWidth="850" pageHeight="1100" math="0" shadow="0">
      <root>
        <mxCell id="0" />
        <mxCell id="1" parent="0" />
        <mxCell id="3BIc6kMmzLehdsgIFbxw-2" value="hyprland_workspace_indicator" style="swimlane;whiteSpace=wrap;html=1;" vertex="1" parent="1">
          <mxGeometry x="220" y="160" width="730" height="450" as="geometry" />
        </mxCell>
        <mxCell id="3BIc6kMmzLehdsgIFbxw-7" value="Read Hyprland data" style="ellipse;whiteSpace=wrap;html=1;" vertex="1" parent="3BIc6kMmzLehdsgIFbxw-2">
          <mxGeometry x="110" y="280" width="130" height="50" as="geometry" />
        </mxCell>
        <mxCell id="3BIc6kMmzLehdsgIFbxw-8" value="Connect to a socket" style="ellipse;whiteSpace=wrap;html=1;" vertex="1" parent="3BIc6kMmzLehdsgIFbxw-2">
          <mxGeometry x="20" y="200" width="110" height="50" as="geometry" />
        </mxCell>
        <mxCell id="3BIc6kMmzLehdsgIFbxw-9" value="Build arrays" style="ellipse;whiteSpace=wrap;html=1;" vertex="1" parent="3BIc6kMmzLehdsgIFbxw-2">
          <mxGeometry x="420" y="270" width="130" height="50" as="geometry" />
        </mxCell>
        <mxCell id="3BIc6kMmzLehdsgIFbxw-10" value="" style="edgeStyle=none;html=1;endArrow=block;endFill=0;endSize=12;verticalAlign=bottom;rounded=0;fontSize=12;curved=1;entryX=0.5;entryY=1;entryDx=0;entryDy=0;exitX=0.5;exitY=0;exitDx=0;exitDy=0;" edge="1" parent="3BIc6kMmzLehdsgIFbxw-2" source="3BIc6kMmzLehdsgIFbxw-12" target="3BIc6kMmzLehdsgIFbxw-7">
          <mxGeometry width="160" relative="1" as="geometry">
            <mxPoint x="370" y="350" as="sourcePoint" />
            <mxPoint x="380" y="400" as="targetPoint" />
          </mxGeometry>
        </mxCell>
        <mxCell id="3BIc6kMmzLehdsgIFbxw-11" value="Read workspaces" style="ellipse;whiteSpace=wrap;html=1;" vertex="1" parent="3BIc6kMmzLehdsgIFbxw-2">
          <mxGeometry x="10" y="380" width="100" height="50" as="geometry" />
        </mxCell>
        <mxCell id="3BIc6kMmzLehdsgIFbxw-12" value="Read monitors" style="ellipse;whiteSpace=wrap;html=1;" vertex="1" parent="3BIc6kMmzLehdsgIFbxw-2">
          <mxGeometry x="230" y="380" width="100" height="50" as="geometry" />
        </mxCell>
        <mxCell id="3BIc6kMmzLehdsgIFbxw-13" value="Read active workspaces" style="ellipse;whiteSpace=wrap;html=1;" vertex="1" parent="3BIc6kMmzLehdsgIFbxw-2">
          <mxGeometry x="120" y="380" width="100" height="50" as="geometry" />
        </mxCell>
        <mxCell id="3BIc6kMmzLehdsgIFbxw-14" value="" style="edgeStyle=none;html=1;endArrow=block;endFill=0;endSize=12;verticalAlign=bottom;rounded=0;fontSize=12;curved=1;entryX=0.5;entryY=1;entryDx=0;entryDy=0;exitX=0.5;exitY=0;exitDx=0;exitDy=0;" edge="1" parent="3BIc6kMmzLehdsgIFbxw-2" source="3BIc6kMmzLehdsgIFbxw-13" target="3BIc6kMmzLehdsgIFbxw-7">
          <mxGeometry width="160" relative="1" as="geometry">
            <mxPoint x="290" y="390" as="sourcePoint" />
            <mxPoint x="175" y="360" as="targetPoint" />
          </mxGeometry>
        </mxCell>
        <mxCell id="3BIc6kMmzLehdsgIFbxw-15" value="" style="edgeStyle=none;html=1;endArrow=block;endFill=0;endSize=12;verticalAlign=bottom;rounded=0;fontSize=12;curved=1;entryX=0.454;entryY=0.97;entryDx=0;entryDy=0;exitX=0.5;exitY=0;exitDx=0;exitDy=0;entryPerimeter=0;" edge="1" parent="3BIc6kMmzLehdsgIFbxw-2" source="3BIc6kMmzLehdsgIFbxw-11" target="3BIc6kMmzLehdsgIFbxw-7">
          <mxGeometry width="160" relative="1" as="geometry">
            <mxPoint x="180" y="390" as="sourcePoint" />
            <mxPoint x="175" y="360" as="targetPoint" />
          </mxGeometry>
        </mxCell>
        <mxCell id="3BIc6kMmzLehdsgIFbxw-22" value="&amp;lt;&amp;lt;include&amp;gt;&amp;gt;" style="edgeStyle=none;html=1;endArrow=open;verticalAlign=bottom;dashed=1;labelBackgroundColor=none;rounded=0;fontSize=12;startSize=8;endSize=8;curved=1;entryX=0.5;entryY=1;entryDx=0;entryDy=0;exitX=0.5;exitY=0;exitDx=0;exitDy=0;" edge="1" parent="3BIc6kMmzLehdsgIFbxw-2" source="3BIc6kMmzLehdsgIFbxw-7" target="3BIc6kMmzLehdsgIFbxw-8">
          <mxGeometry x="-0.0054" width="160" relative="1" as="geometry">
            <mxPoint x="-160" y="360" as="sourcePoint" />
            <mxPoint y="360" as="targetPoint" />
            <mxPoint as="offset" />
          </mxGeometry>
        </mxCell>
        <mxCell id="3BIc6kMmzLehdsgIFbxw-23" value="&amp;lt;&amp;lt;include&amp;gt;&amp;gt;" style="edgeStyle=none;html=1;endArrow=open;verticalAlign=bottom;dashed=1;labelBackgroundColor=none;rounded=0;fontSize=12;startSize=8;endSize=8;curved=1;entryX=0.5;entryY=0;entryDx=0;entryDy=0;exitX=0.5;exitY=1;exitDx=0;exitDy=0;" edge="1" parent="3BIc6kMmzLehdsgIFbxw-2" source="3BIc6kMmzLehdsgIFbxw-28" target="3BIc6kMmzLehdsgIFbxw-8">
          <mxGeometry width="160" relative="1" as="geometry">
            <mxPoint x="85" y="130.0000000000001" as="sourcePoint" />
            <mxPoint x="95" y="270" as="targetPoint" />
          </mxGeometry>
        </mxCell>
        <mxCell id="3BIc6kMmzLehdsgIFbxw-26" value="Parse Hyprland data as JSON" style="ellipse;whiteSpace=wrap;html=1;" vertex="1" parent="3BIc6kMmzLehdsgIFbxw-2">
          <mxGeometry x="350" y="360" width="140" height="50" as="geometry" />
        </mxCell>
        <mxCell id="3BIc6kMmzLehdsgIFbxw-27" value="&amp;lt;&amp;lt;include&amp;gt;&amp;gt;" style="edgeStyle=none;html=1;endArrow=open;verticalAlign=bottom;dashed=1;labelBackgroundColor=none;rounded=0;fontSize=12;startSize=8;endSize=8;curved=1;entryX=0;entryY=0.5;entryDx=0;entryDy=0;exitX=1;exitY=1;exitDx=0;exitDy=0;" edge="1" parent="3BIc6kMmzLehdsgIFbxw-2" source="3BIc6kMmzLehdsgIFbxw-7" target="3BIc6kMmzLehdsgIFbxw-26">
          <mxGeometry width="160" relative="1" as="geometry">
            <mxPoint x="190" y="530" as="sourcePoint" />
            <mxPoint x="350" y="530" as="targetPoint" />
          </mxGeometry>
        </mxCell>
        <mxCell id="3BIc6kMmzLehdsgIFbxw-28" value="Poll for Hyprland events" style="ellipse;whiteSpace=wrap;html=1;" vertex="1" parent="3BIc6kMmzLehdsgIFbxw-2">
          <mxGeometry x="20" y="50" width="130" height="50" as="geometry" />
        </mxCell>
        <mxCell id="3BIc6kMmzLehdsgIFbxw-30" value="&amp;lt;&amp;lt;include&amp;gt;&amp;gt;" style="edgeStyle=none;html=1;endArrow=open;verticalAlign=bottom;dashed=1;labelBackgroundColor=none;rounded=0;fontSize=12;startSize=8;endSize=8;curved=1;entryX=0.926;entryY=0.252;entryDx=0;entryDy=0;exitX=0.046;exitY=0.253;exitDx=0;exitDy=0;exitPerimeter=0;entryPerimeter=0;" edge="1" parent="3BIc6kMmzLehdsgIFbxw-2" source="3BIc6kMmzLehdsgIFbxw-31" target="3BIc6kMmzLehdsgIFbxw-28">
          <mxGeometry x="-0.2" y="-16" width="160" relative="1" as="geometry">
            <mxPoint x="95" y="110" as="sourcePoint" />
            <mxPoint x="95" y="190" as="targetPoint" />
            <mxPoint as="offset" />
          </mxGeometry>
        </mxCell>
        <mxCell id="3BIc6kMmzLehdsgIFbxw-31" value="&lt;br&gt;extension points&lt;br&gt;&lt;div&gt;Print arrays as JSON&lt;/div&gt;" style="html=1;shape=mxgraph.sysml.useCaseExtPt;whiteSpace=wrap;align=center;" vertex="1" parent="3BIc6kMmzLehdsgIFbxw-2">
          <mxGeometry x="290" y="50" width="220" height="80" as="geometry" />
        </mxCell>
        <mxCell id="3BIc6kMmzLehdsgIFbxw-32" value="Handle Hyprland events" style="resizable=0;html=1;verticalAlign=middle;align=center;labelBackgroundColor=none;fontStyle=1;" connectable="0" vertex="1" parent="3BIc6kMmzLehdsgIFbxw-31">
          <mxGeometry x="110" y="17" as="geometry" />
        </mxCell>
        <mxCell id="3BIc6kMmzLehdsgIFbxw-34" value="Build workspace array" style="ellipse;whiteSpace=wrap;html=1;" vertex="1" parent="3BIc6kMmzLehdsgIFbxw-2">
          <mxGeometry x="250" y="140" width="140" height="50" as="geometry" />
        </mxCell>
        <mxCell id="3BIc6kMmzLehdsgIFbxw-35" value="Build active workspace array" style="ellipse;whiteSpace=wrap;html=1;" vertex="1" parent="3BIc6kMmzLehdsgIFbxw-2">
          <mxGeometry x="180" y="200" width="140" height="50" as="geometry" />
        </mxCell>
        <mxCell id="3BIc6kMmzLehdsgIFbxw-33" value="" style="edgeStyle=none;html=1;endArrow=block;endFill=0;endSize=12;verticalAlign=bottom;rounded=0;fontSize=12;curved=1;exitX=1;exitY=0.5;exitDx=0;exitDy=0;entryX=0;entryY=0.5;entryDx=0;entryDy=0;" edge="1" parent="3BIc6kMmzLehdsgIFbxw-2" source="3BIc6kMmzLehdsgIFbxw-34" target="3BIc6kMmzLehdsgIFbxw-9">
          <mxGeometry width="160" relative="1" as="geometry">
            <mxPoint x="-100" y="614.31" as="sourcePoint" />
            <mxPoint x="280" y="175" as="targetPoint" />
          </mxGeometry>
        </mxCell>
        <mxCell id="3BIc6kMmzLehdsgIFbxw-36" value="" style="edgeStyle=none;html=1;endArrow=block;endFill=0;endSize=12;verticalAlign=bottom;rounded=0;fontSize=12;curved=1;entryX=0;entryY=0.5;entryDx=0;entryDy=0;exitX=1;exitY=0.5;exitDx=0;exitDy=0;" edge="1" parent="3BIc6kMmzLehdsgIFbxw-2" source="3BIc6kMmzLehdsgIFbxw-35" target="3BIc6kMmzLehdsgIFbxw-9">
          <mxGeometry width="160" relative="1" as="geometry">
            <mxPoint x="260" y="200" as="sourcePoint" />
            <mxPoint x="270.0000000000002" y="225.0000000000001" as="targetPoint" />
          </mxGeometry>
        </mxCell>
        <mxCell id="3BIc6kMmzLehdsgIFbxw-40" value="&amp;lt;&amp;lt;extend&amp;gt;&amp;gt;" style="edgeStyle=none;html=1;startArrow=open;endArrow=none;startSize=12;verticalAlign=bottom;dashed=1;labelBackgroundColor=none;rounded=0;fontSize=12;curved=1;entryX=0.5;entryY=0;entryDx=0;entryDy=0;exitX=0.635;exitY=1.011;exitDx=0;exitDy=0;exitPerimeter=0;" edge="1" parent="3BIc6kMmzLehdsgIFbxw-2" source="3BIc6kMmzLehdsgIFbxw-31" target="3BIc6kMmzLehdsgIFbxw-41">
          <mxGeometry width="160" relative="1" as="geometry">
            <mxPoint x="300" y="120.00000000000011" as="sourcePoint" />
            <mxPoint x="390" y="240" as="targetPoint" />
          </mxGeometry>
        </mxCell>
        <mxCell id="3BIc6kMmzLehdsgIFbxw-41" value="Print arrays as JSON" style="ellipse;whiteSpace=wrap;html=1;" vertex="1" parent="3BIc6kMmzLehdsgIFbxw-2">
          <mxGeometry x="510" y="180" width="130" height="50" as="geometry" />
        </mxCell>
        <mxCell id="3BIc6kMmzLehdsgIFbxw-42" value="Manipulate bits as an array" style="ellipse;whiteSpace=wrap;html=1;" vertex="1" parent="3BIc6kMmzLehdsgIFbxw-2">
          <mxGeometry x="580" y="340" width="130" height="50" as="geometry" />
        </mxCell>
        <mxCell id="3BIc6kMmzLehdsgIFbxw-19" value="&amp;lt;&amp;lt;include&amp;gt;&amp;gt;" style="edgeStyle=none;html=1;endArrow=open;verticalAlign=bottom;dashed=1;labelBackgroundColor=none;rounded=0;fontSize=12;startSize=8;endSize=8;curved=1;entryX=1;entryY=0;entryDx=0;entryDy=0;exitX=0;exitY=1;exitDx=0;exitDy=0;" edge="1" parent="3BIc6kMmzLehdsgIFbxw-2" source="3BIc6kMmzLehdsgIFbxw-9" target="3BIc6kMmzLehdsgIFbxw-7">
          <mxGeometry width="160" relative="1" as="geometry">
            <mxPoint x="150" y="570" as="sourcePoint" />
            <mxPoint x="310" y="570" as="targetPoint" />
          </mxGeometry>
        </mxCell>
        <mxCell id="3BIc6kMmzLehdsgIFbxw-49" value="&amp;lt;&amp;lt;include&amp;gt;&amp;gt;" style="edgeStyle=none;html=1;endArrow=open;verticalAlign=bottom;dashed=1;labelBackgroundColor=none;rounded=0;fontSize=12;startSize=8;endSize=8;curved=1;entryX=0;entryY=0.5;entryDx=0;entryDy=0;exitX=0.79;exitY=0.921;exitDx=0;exitDy=0;exitPerimeter=0;" edge="1" parent="3BIc6kMmzLehdsgIFbxw-2" source="3BIc6kMmzLehdsgIFbxw-9" target="3BIc6kMmzLehdsgIFbxw-42">
          <mxGeometry width="160" relative="1" as="geometry">
            <mxPoint x="460" y="240" as="sourcePoint" />
            <mxPoint x="620" y="240" as="targetPoint" />
          </mxGeometry>
        </mxCell>
        <mxCell id="3BIc6kMmzLehdsgIFbxw-51" value="&amp;lt;&amp;lt;include&amp;gt;&amp;gt;" style="edgeStyle=none;html=1;endArrow=open;verticalAlign=bottom;dashed=1;labelBackgroundColor=none;rounded=0;fontSize=12;startSize=8;endSize=8;curved=1;entryX=0.5;entryY=0;entryDx=0;entryDy=0;exitX=0.5;exitY=1;exitDx=0;exitDy=0;" edge="1" parent="3BIc6kMmzLehdsgIFbxw-2" source="3BIc6kMmzLehdsgIFbxw-41" target="3BIc6kMmzLehdsgIFbxw-9">
          <mxGeometry width="160" relative="1" as="geometry">
            <mxPoint x="541" y="287" as="sourcePoint" />
            <mxPoint x="660" y="175" as="targetPoint" />
          </mxGeometry>
        </mxCell>
        <mxCell id="3BIc6kMmzLehdsgIFbxw-3" value="Hyprland" style="shape=umlActor;verticalLabelPosition=bottom;verticalAlign=top;html=1;" vertex="1" parent="1">
          <mxGeometry x="100" y="400" width="30" height="60" as="geometry" />
        </mxCell>
        <mxCell id="3BIc6kMmzLehdsgIFbxw-53" style="edgeStyle=none;curved=1;rounded=0;orthogonalLoop=1;jettySize=auto;html=1;entryX=1;entryY=0.5;entryDx=0;entryDy=0;fontSize=12;startSize=8;endSize=8;" edge="1" parent="1" source="3BIc6kMmzLehdsgIFbxw-4" target="3BIc6kMmzLehdsgIFbxw-41">
          <mxGeometry relative="1" as="geometry" />
        </mxCell>
        <mxCell id="3BIc6kMmzLehdsgIFbxw-4" value="EWW" style="shape=umlActor;verticalLabelPosition=bottom;verticalAlign=top;html=1;" vertex="1" parent="1">
          <mxGeometry x="1000" y="335" width="30" height="60" as="geometry" />
        </mxCell>
        <mxCell id="3BIc6kMmzLehdsgIFbxw-18" style="edgeStyle=none;curved=1;rounded=0;orthogonalLoop=1;jettySize=auto;html=1;entryX=0.634;entryY=0.653;entryDx=0;entryDy=0;entryPerimeter=0;fontSize=12;startSize=8;endSize=8;" edge="1" parent="1" source="3BIc6kMmzLehdsgIFbxw-8" target="3BIc6kMmzLehdsgIFbxw-3">
          <mxGeometry relative="1" as="geometry" />
        </mxCell>
        <mxCell id="3BIc6kMmzLehdsgIFbxw-45" value="cJSON" style="shape=umlActor;verticalLabelPosition=bottom;verticalAlign=top;html=1;" vertex="1" parent="1">
          <mxGeometry x="750" y="650" width="30" height="60" as="geometry" />
        </mxCell>
        <mxCell id="3BIc6kMmzLehdsgIFbxw-47" style="edgeStyle=none;curved=1;rounded=0;orthogonalLoop=1;jettySize=auto;html=1;entryX=0.25;entryY=0.1;entryDx=0;entryDy=0;entryPerimeter=0;fontSize=12;startSize=8;endSize=8;" edge="1" parent="1" source="3BIc6kMmzLehdsgIFbxw-26" target="3BIc6kMmzLehdsgIFbxw-45">
          <mxGeometry relative="1" as="geometry" />
        </mxCell>
        <mxCell id="3BIc6kMmzLehdsgIFbxw-48" style="edgeStyle=none;curved=1;rounded=0;orthogonalLoop=1;jettySize=auto;html=1;entryX=0.5;entryY=0;entryDx=0;entryDy=0;entryPerimeter=0;fontSize=12;startSize=8;endSize=8;" edge="1" parent="1" source="3BIc6kMmzLehdsgIFbxw-9" target="3BIc6kMmzLehdsgIFbxw-45">
          <mxGeometry relative="1" as="geometry" />
        </mxCell>
      </root>
    </mxGraphModel>
  </diagram>
</mxfile>
